<?xml version="1.0" standalone="no"?>
<!DOCTYPE svg PUBLIC "-//W3C//DTD SVG 20010904//EN"
 "http://www.w3.org/TR/2001/REC-SVG-20010904/DTD/svg10.dtd">
<svg version="1.0" xmlns="http://www.w3.org/2000/svg"
 width="1380.000000pt" height="1380.000000pt" viewBox="0 0 1380.000000 1380.000000"
 preserveAspectRatio="xMidYMid meet">
<metadata>
Created by potrace 1.16, written by Peter Selinger 2001-2019
</metadata>
<g transform="translate(0.000000,1380.000000) scale(0.100000,-0.100000)"
fill="#000000" stroke="none">
<path d="M316 13749 c-41 -124 -142 -220 -273 -259 l-43 -13 0 -303 0 -304 45
-11 c25 -6 72 -28 103 -49 111 -71 167 -172 183 -326 12 -116 24 -149 78 -207
58 -63 126 -91 221 -91 66 -1 85 4 142 32 110 54 145 118 158 283 5 78 14 120
29 153 44 90 138 149 322 202 179 51 269 105 311 188 12 23 26 83 34 141 22
167 72 253 176 304 35 17 113 46 175 65 218 66 295 119 327 224 l7 22 -294 0
-295 0 -7 -37 c-31 -169 -220 -295 -419 -280 -175 13 -308 113 -352 264 l-15
53 -299 0 -298 0 -16 -51z m495 -226 c88 -41 142 -92 180 -169 26 -52 32 -79
37 -152 10 -192 -78 -335 -243 -393 -211 -74 -435 10 -522 196 -25 55 -28 70
-28 170 1 97 4 117 27 167 31 66 98 137 160 169 73 38 127 48 228 46 82 -2
104 -7 161 -34z"/>
<path d="M3145 13763 c26 -62 57 -102 104 -134 54 -36 97 -48 210 -59 66 -7
101 -17 150 -42 276 -141 262 -596 -22 -724 -79 -35 -215 -45 -298 -21 -121
36 -176 109 -249 335 -28 86 -63 179 -78 205 -75 138 -235 185 -381 110 -164
-84 -198 -344 -63 -476 57 -55 115 -76 239 -86 124 -10 166 -27 224 -88 50
-52 79 -114 129 -273 52 -167 76 -215 133 -267 50 -46 96 -63 176 -63 73 0
124 17 171 57 58 50 86 104 140 272 56 172 77 216 127 272 62 68 101 83 236
87 141 5 190 -6 256 -58 60 -48 98 -120 151 -290 86 -274 131 -322 329 -345
178 -20 266 -77 333 -213 32 -64 33 -71 33 -187 0 -114 -2 -123 -32 -187 -62
-131 -171 -203 -324 -215 -107 -7 -176 -33 -229 -84 -51 -49 -75 -102 -90
-192 -30 -191 -131 -354 -252 -408 -178 -78 -418 42 -522 261 -28 58 -31 75
-31 155 0 76 4 97 25 139 60 117 239 217 430 241 93 11 192 94 227 188 15 40
16 150 3 199 -18 63 -69 120 -140 156 -62 32 -69 33 -155 30 -103 -5 -147 -23
-207 -85 -50 -52 -68 -100 -79 -212 -11 -117 -47 -200 -116 -269 -149 -149
-417 -162 -542 -27 -53 58 -71 96 -121 255 -66 209 -107 277 -195 322 -55 29
-149 35 -211 14 -105 -35 -156 -106 -220 -311 -92 -298 -152 -358 -370 -373
-163 -12 -225 -49 -280 -167 -18 -37 -24 -68 -24 -120 0 -88 12 -131 53 -192
42 -62 135 -113 207 -113 263 0 456 -215 420 -467 -18 -130 -91 -230 -210
-287 -62 -29 -71 -31 -185 -31 -109 0 -125 2 -177 27 -32 15 -80 48 -108 74
-69 64 -99 129 -112 245 -24 215 -68 260 -333 346 -167 54 -227 83 -278 132
-68 64 -81 100 -85 236 -3 104 -1 128 18 177 41 109 127 168 335 228 185 53
265 101 306 183 12 23 27 84 35 144 17 131 45 196 118 269 75 74 138 102 275
118 159 20 214 55 267 169 24 53 26 68 22 146 -3 74 -9 96 -34 142 -54 96
-155 146 -271 136 -76 -7 -128 -33 -177 -88 -46 -51 -74 -112 -116 -255 -79
-268 -153 -339 -367 -354 -114 -8 -162 -27 -225 -87 -50 -49 -78 -119 -88
-222 -5 -47 -13 -101 -19 -119 -52 -171 -248 -285 -440 -255 -193 30 -321 162
-339 348 -5 63 -52 180 -99 247 -23 34 -92 78 -121 78 -9 0 -12 -74 -12 -295
l0 -295 24 0 c33 0 85 -19 128 -48 62 -40 103 -113 157 -277 60 -182 71 -208
110 -262 46 -63 104 -92 203 -103 110 -11 133 -17 201 -53 73 -38 130 -100
170 -185 30 -63 32 -74 32 -182 0 -105 -2 -119 -27 -166 -51 -96 -118 -138
-328 -204 -160 -50 -197 -68 -255 -121 -53 -49 -71 -96 -84 -214 -5 -49 -17
-108 -26 -130 -44 -104 -152 -200 -255 -226 l-50 -13 0 -298 c0 -164 2 -298 5
-298 3 0 27 11 54 25 88 44 125 105 195 325 55 173 76 213 139 260 74 56 136
75 247 75 86 0 101 -3 160 -31 107 -51 175 -134 204 -249 55 -209 -45 -424
-229 -495 -16 -7 -71 -15 -121 -20 -54 -5 -110 -16 -141 -29 -152 -66 -222
-255 -150 -403 52 -105 133 -152 267 -152 102 -1 171 25 225 85 51 57 66 101
74 225 7 95 13 119 37 163 49 91 121 135 319 195 144 44 210 75 257 120 58 56
73 98 73 201 0 80 -3 95 -27 136 -59 101 -138 145 -284 159 -167 15 -261 79
-328 219 -29 62 -31 73 -31 176 0 136 22 198 97 281 85 92 197 132 342 121
173 -13 242 -87 321 -342 50 -161 85 -234 139 -283 83 -76 208 -92 313 -38 67
34 129 105 147 170 90 323 114 375 196 424 78 46 122 57 230 56 156 -1 254
-52 309 -163 31 -61 75 -199 86 -270 16 -98 68 -169 159 -215 114 -58 242 -41
339 44 64 57 90 117 90 210 -1 164 -82 247 -308 314 -235 71 -300 109 -353
210 -25 47 -27 60 -27 171 0 109 2 125 27 177 74 158 255 250 433 220 203 -33
334 -182 335 -379 0 -241 272 -386 462 -248 57 42 103 130 149 285 82 275 149
342 360 358 128 10 179 32 243 103 49 54 76 120 76 185 0 156 84 297 213 358
211 100 463 18 554 -180 18 -39 27 -83 33 -154 5 -54 16 -114 24 -134 24 -57
90 -121 157 -151 54 -24 71 -27 134 -23 86 6 158 41 215 105 90 103 86 278
-10 387 -51 58 -117 86 -227 97 -120 13 -189 38 -252 95 -162 146 -174 428
-26 593 80 88 232 133 374 110 148 -23 223 -109 285 -324 45 -153 75 -222 122
-274 57 -64 94 -80 219 -96 156 -21 248 -75 300 -175 25 -49 79 -221 90 -285
9 -54 36 -103 82 -148 60 -61 104 -78 217 -88 56 -4 116 -13 135 -18 100 -30
170 -120 220 -283 80 -257 116 -321 206 -367 68 -35 189 -37 252 -3 111 59
158 135 172 282 13 126 33 179 93 245 91 99 239 149 376 125 180 -31 295 -140
324 -308 30 -174 -47 -339 -187 -402 -58 -26 -202 -71 -275 -86 -52 -10 -85
-29 -135 -79 -55 -56 -70 -83 -90 -171 -23 -101 -72 -243 -98 -285 -52 -85
-145 -132 -299 -153 -116 -15 -166 -36 -225 -98 -47 -49 -71 -112 -81 -215
-11 -106 -49 -199 -105 -255 -42 -42 -150 -89 -273 -119 -49 -12 -105 -25
-125 -30 -54 -13 -127 -83 -160 -154 -58 -121 -32 -254 65 -343 64 -59 106
-75 196 -76 88 -1 144 20 210 80 58 52 80 106 91 222 21 230 155 365 375 379
139 9 272 -44 327 -131 29 -46 90 -223 102 -296 14 -86 73 -171 149 -215 22
-13 79 -32 126 -43 108 -26 241 -74 280 -102 17 -12 42 -44 55 -71 30 -58 85
-224 85 -254 0 -12 7 -44 15 -72 34 -115 157 -198 290 -196 84 1 130 19 192
75 60 56 85 108 91 190 6 83 -10 143 -54 205 -43 61 -102 99 -172 113 -78 15
-249 68 -296 92 -93 47 -151 153 -170 311 -14 112 -34 162 -88 216 -36 37
-120 81 -154 81 -40 0 -269 80 -316 109 -38 24 -53 44 -83 105 -32 65 -38 87
-43 164 -8 155 48 286 148 341 53 30 193 77 282 96 81 17 117 35 163 80 56 57
77 108 91 227 20 173 81 272 206 331 213 101 467 23 558 -169 11 -25 26 -83
31 -128 29 -235 62 -270 345 -362 178 -57 252 -96 297 -156 38 -50 48 -83 58
-198 17 -202 71 -259 319 -337 242 -76 317 -126 360 -241 25 -66 27 -195 4
-273 -49 -171 -215 -279 -411 -267 -107 7 -180 37 -252 104 -78 72 -110 144
-121 271 -14 157 -80 255 -194 288 -28 8 -100 28 -159 45 -151 43 -220 79
-251 133 -14 24 -50 119 -80 210 -59 181 -87 238 -140 285 -47 41 -96 55 -175
50 -134 -10 -226 -78 -271 -200 -49 -134 -37 -198 52 -293 70 -76 109 -93 234
-105 136 -12 246 -67 295 -147 26 -42 99 -257 99 -292 1 -43 38 -113 88 -164
58 -60 83 -73 169 -91 174 -37 304 -94 348 -152 47 -61 75 -138 86 -231 13
-118 24 -149 76 -204 50 -54 116 -86 265 -131 273 -81 342 -150 358 -361 16
-197 79 -261 335 -337 279 -82 345 -147 364 -360 5 -58 14 -118 20 -134 35
-90 128 -150 321 -207 139 -41 224 -82 275 -134 119 -119 106 -394 -25 -525
-52 -52 -147 -97 -231 -111 -172 -28 -365 68 -429 214 -20 46 -40 148 -40 212
0 91 -82 197 -178 229 -52 18 -159 21 -214 6 -62 -18 -128 -71 -162 -130 -28
-50 -31 -63 -31 -140 0 -73 4 -92 27 -135 14 -27 41 -64 60 -82 36 -35 131
-83 164 -83 35 0 185 -49 259 -83 51 -25 78 -45 98 -74 94 -136 99 -336 11
-476 -31 -50 -45 -61 -107 -91 -72 -34 -208 -78 -282 -91 -51 -9 -87 -28 -136
-72 -61 -55 -88 -117 -98 -226 -15 -154 -66 -250 -168 -315 -74 -47 -150 -65
-257 -60 -135 6 -242 60 -307 155 -42 60 -59 114 -69 220 -10 106 -33 165 -84
216 -46 46 -95 71 -169 87 -88 18 -257 77 -298 105 -74 49 -121 139 -134 262
-10 84 15 193 61 266 29 47 46 61 102 90 37 18 112 45 167 61 55 15 124 34
154 43 76 21 162 107 185 183 35 119 12 216 -73 301 -48 47 -68 60 -117 73
-303 82 -359 107 -401 181 -26 45 -93 247 -93 280 0 37 -29 110 -60 146 -15
20 -57 51 -92 70 -58 31 -70 34 -148 34 -96 0 -143 -18 -205 -80 -62 -62 -80
-109 -80 -205 0 -78 3 -90 34 -148 42 -76 89 -118 156 -136 28 -8 95 -27 150
-41 98 -27 205 -71 235 -97 63 -54 103 -163 103 -283 0 -222 -125 -363 -343
-389 -121 -14 -261 34 -335 116 -66 73 -95 142 -107 256 -12 116 -37 180 -89
226 -124 113 -293 115 -413 6 -60 -56 -80 -97 -96 -201 -16 -106 -63 -224
-116 -295 -52 -68 -207 -121 -320 -109 -87 9 -155 45 -230 119 -46 46 -75 87
-100 141 -36 74 -37 78 -31 168 3 52 12 109 21 130 21 47 91 119 143 145 46
24 250 92 275 92 41 0 126 42 165 82 57 59 83 122 93 228 14 145 71 246 167
297 55 30 247 93 282 93 73 0 168 71 211 157 19 36 26 68 28 131 4 73 1 89
-23 137 -87 179 -320 219 -473 80 -59 -52 -81 -105 -91 -219 -11 -115 -46
-199 -111 -270 -162 -176 -512 -141 -623 62 -88 161 -70 362 45 487 71 78 150
114 276 126 121 11 187 41 237 107 117 152 64 398 -100 467 -162 67 -364 -25
-404 -184 -65 -257 -100 -344 -153 -384 -43 -33 -141 -70 -272 -103 -123 -32
-162 -51 -210 -104 -50 -56 -67 -99 -77 -197 -17 -166 -77 -272 -182 -322 -64
-30 -203 -74 -272 -86 -88 -15 -169 -76 -212 -160 -20 -39 -27 -72 -33 -156
-10 -126 -31 -179 -97 -239 -53 -50 -113 -77 -259 -121 -147 -43 -204 -70
-258 -119 -56 -52 -81 -113 -81 -200 1 -147 102 -261 256 -290 74 -14 203 -56
267 -88 38 -18 60 -38 77 -66 31 -53 84 -212 96 -288 17 -108 67 -177 163
-225 166 -84 377 8 417 182 46 202 94 326 147 377 115 112 341 141 471 60 75
-45 112 -111 176 -307 65 -199 101 -261 179 -310 45 -27 57 -30 135 -30 74 0
93 4 137 27 88 46 135 112 159 225 20 97 68 234 100 288 63 108 240 166 398
131 190 -43 289 -170 291 -376 1 -107 -16 -169 -65 -244 -37 -55 -121 -100
-269 -141 -52 -14 -118 -33 -146 -41 -65 -18 -136 -80 -172 -148 -36 -70 -38
-188 -3 -258 99 -204 431 -212 533 -14 12 24 26 82 34 149 16 129 43 195 110
267 117 125 323 154 494 68 66 -33 109 -78 145 -154 80 -169 33 -408 -97 -490
-46 -29 -261 -104 -299 -104 -41 0 -146 -58 -179 -98 -91 -110 -91 -277 0
-376 49 -53 110 -83 280 -136 159 -50 197 -68 255 -121 60 -55 85 -120 92
-233 6 -119 25 -175 75 -226 62 -65 116 -85 223 -85 77 1 97 5 141 27 98 51
154 145 154 257 0 86 40 194 96 260 43 51 175 107 348 146 82 18 119 40 173
98 43 47 54 73 103 247 41 148 71 211 122 255 82 69 234 102 349 75 63 -15
157 -60 180 -86 31 -35 67 -118 109 -254 66 -207 108 -278 190 -320 54 -27 92
-32 162 -20 82 14 160 59 194 110 37 55 74 163 74 213 0 62 -39 135 -102 193
-64 58 -100 71 -231 83 -115 11 -169 33 -237 97 -153 143 -164 410 -24 580 23
29 60 56 111 81 75 37 79 38 187 38 95 0 118 -3 163 -24 58 -26 111 -78 142
-140 12 -22 42 -104 67 -183 70 -214 100 -267 184 -312 37 -20 73 -30 139 -36
173 -18 285 -91 348 -225 26 -55 28 -70 28 -176 0 -116 0 -117 -40 -195 -35
-68 -47 -83 -93 -110 -55 -33 -210 -87 -301 -104 -99 -19 -182 -85 -224 -179
-16 -36 -18 -60 -15 -125 5 -94 26 -142 85 -197 49 -47 86 -65 170 -84 110
-25 247 -74 296 -105 36 -23 52 -43 83 -105 33 -67 38 -88 42 -165 8 -158 -49
-285 -153 -342 -54 -29 -204 -79 -297 -98 -77 -15 -141 -61 -185 -133 -31 -48
-37 -68 -41 -131 -6 -93 15 -158 70 -221 52 -59 100 -83 206 -101 156 -27 301
-103 347 -181 62 -104 73 -279 24 -378 -37 -75 -132 -166 -222 -210 -75 -37
-78 -38 -167 -33 -211 12 -298 118 -375 452 -28 125 -119 214 -243 241 -195
42 -326 103 -370 174 -115 181 -72 459 83 543 51 28 170 68 260 89 131 30 196
74 243 163 23 44 27 63 27 141 0 107 -18 150 -89 212 -110 97 -291 97 -400 2
-67 -59 -86 -104 -96 -219 -11 -120 -38 -195 -95 -257 -153 -172 -445 -177
-606 -11 -61 63 -90 135 -100 250 -11 129 -38 191 -108 246 -66 53 -110 67
-201 66 -61 0 -85 -5 -126 -26 -179 -93 -214 -334 -69 -482 54 -55 108 -75
224 -85 198 -18 309 -107 356 -286 51 -198 -38 -404 -208 -480 -72 -33 -192
-44 -279 -26 -130 27 -194 108 -264 329 -25 81 -58 171 -72 201 -51 105 -148
161 -278 161 -87 0 -157 25 -215 78 -58 52 -94 123 -139 276 -42 143 -69 204
-116 256 -51 56 -102 78 -212 89 -148 16 -249 73 -300 170 -30 56 -84 221 -97
296 -9 55 -26 83 -81 139 -50 49 -113 85 -150 86 -11 0 -56 11 -100 24 -185
56 -239 86 -273 155 -24 47 -66 178 -86 265 -40 174 -127 247 -310 260 -217
16 -284 83 -371 371 -58 193 -97 256 -190 301 -48 24 -63 26 -132 22 -155 -9
-216 -71 -288 -298 -77 -239 -110 -300 -190 -346 -57 -34 -92 -43 -193 -49
-198 -13 -311 -129 -311 -320 0 -74 -19 -143 -54 -196 -43 -64 -113 -103 -303
-165 -210 -69 -266 -103 -310 -192 -86 -175 28 -384 227 -417 72 -12 252 -73
292 -100 22 -15 48 -45 62 -73 26 -53 86 -232 86 -260 0 -10 7 -41 15 -69 34
-114 156 -197 290 -197 86 1 129 18 194 79 69 65 94 127 89 224 -4 88 -29 148
-85 206 -50 51 -104 73 -209 84 -134 14 -196 41 -275 120 -55 55 -69 77 -87
134 -43 132 -23 289 50 395 62 90 202 148 336 139 141 -9 237 -57 284 -142 31
-56 98 -252 98 -287 0 -39 55 -142 95 -177 57 -49 114 -71 217 -82 150 -15
249 -72 298 -170 16 -32 43 -106 60 -166 17 -59 37 -131 45 -159 24 -81 150
-193 218 -194 37 0 204 -53 273 -85 61 -29 74 -41 96 -82 28 -51 79 -211 98
-305 45 -225 333 -308 501 -145 51 50 70 98 84 213 25 202 103 309 266 364 53
18 81 21 159 18 148 -6 246 -59 294 -161 29 -62 71 -191 87 -267 16 -79 40
-120 103 -177 38 -35 68 -53 103 -62 244 -60 351 -106 400 -169 81 -106 97
-304 36 -432 -17 -36 -40 -75 -52 -88 -46 -47 -209 -111 -363 -142 -72 -14
-143 -61 -179 -119 -16 -25 -29 -49 -29 -53 0 -4 129 -8 288 -8 l287 0 18 51
c38 106 121 164 327 224 155 46 224 80 277 138 46 50 59 87 73 210 18 153 98
269 228 330 58 28 80 32 162 35 78 3 105 0 153 -18 123 -46 204 -144 234 -284
38 -175 -35 -361 -173 -442 -53 -31 -90 -42 -179 -54 -94 -12 -244 -85 -274
-134 -12 -18 -21 -38 -21 -45 0 -8 80 -11 288 -11 l288 0 18 51 c56 154 255
259 435 230 150 -24 287 -134 316 -253 l7 -28 313 0 313 0 12 35 c34 102 138
205 243 241 l47 16 0 302 0 303 -42 12 c-103 30 -200 118 -240 219 -18 47 -22
76 -23 167 0 105 2 114 33 177 17 36 50 85 73 108 40 41 147 100 182 100 16 0
17 21 17 310 0 289 -1 310 -17 310 -10 0 -45 13 -78 29 -73 34 -146 110 -183
189 -25 52 -27 68 -27 172 1 102 4 121 27 172 46 100 136 179 236 209 l42 12
0 307 0 307 -46 13 c-25 7 -71 30 -102 50 -100 65 -152 164 -172 329 -22 177
-78 229 -344 316 -195 64 -261 101 -306 172 -56 89 -64 238 -19 358 17 45 38
76 88 126 78 78 137 104 278 124 107 16 146 32 196 83 47 49 77 112 122 257
49 158 75 214 121 265 40 44 122 90 162 90 l22 0 0 295 c0 162 -3 295 -7 295
-5 0 -31 -13 -59 -30 -98 -55 -140 -131 -154 -274 -13 -132 -31 -176 -104
-254 -169 -179 -502 -151 -634 54 -80 125 -83 321 -7 435 40 61 120 105 284
159 221 71 279 105 323 187 56 102 44 234 -29 314 -47 52 -118 87 -268 134
-66 21 -143 48 -172 60 -66 30 -135 93 -164 153 -21 42 -24 62 -24 172 0 143
14 189 79 253 50 51 112 80 290 138 83 27 172 62 198 78 109 69 152 195 113
328 -64 214 -389 261 -525 76 -32 -44 -44 -87 -59 -211 -26 -210 -163 -340
-381 -363 -201 -20 -292 -109 -311 -303 -10 -108 -20 -143 -53 -199 -116 -197
-409 -247 -605 -103 -97 71 -141 171 -141 316 0 110 19 175 69 231 52 59 109
89 271 139 162 51 232 85 282 137 47 49 57 75 73 200 31 229 161 360 382 382
204 21 295 110 313 306 12 117 39 191 95 253 181 201 545 163 663 -69 27 -52
35 -83 42 -159 5 -52 14 -111 21 -130 13 -39 52 -96 83 -123 25 -21 91 -57
106 -57 7 0 10 97 10 293 l0 293 -53 17 c-60 19 -131 66 -170 113 -55 65 -97
182 -97 268 0 64 -29 136 -73 179 -54 54 -122 86 -276 131 -151 45 -210 74
-266 132 -125 128 -105 412 38 540 22 20 69 50 106 68 61 28 74 31 166 30 79
0 112 -5 158 -23 107 -42 195 -130 231 -231 10 -27 21 -92 26 -145 6 -76 14
-104 35 -141 27 -46 88 -96 145 -120 l30 -13 0 293 0 293 -61 22 c-92 34 -157
92 -203 184 -36 69 -40 87 -44 167 -9 194 81 340 250 401 l58 22 0 301 0 301
-49 18 c-172 61 -269 212 -259 405 8 175 111 313 261 353 l47 13 0 298 0 298
-49 -24 c-48 -25 -94 -73 -124 -131 -8 -16 -34 -91 -57 -165 -93 -294 -152
-355 -364 -370 -86 -6 -112 -12 -155 -35 -85 -47 -117 -102 -187 -317 -26 -79
-55 -160 -66 -181 -30 -60 -84 -113 -141 -138 -45 -21 -68 -24 -163 -24 -107
0 -112 1 -187 38 -51 25 -88 52 -111 81 -143 173 -129 440 29 584 65 59 140
87 258 96 181 13 278 111 298 296 25 246 163 384 402 404 139 11 248 90 282
204 l6 22 -295 0 -296 0 0 -27 c0 -44 -43 -125 -88 -165 -56 -51 -95 -69 -252
-118 -273 -86 -332 -140 -351 -321 -10 -100 -32 -166 -77 -231 -68 -99 -199
-168 -318 -168 -64 0 -142 -28 -183 -65 -53 -48 -93 -129 -136 -275 -37 -125
-69 -199 -108 -252 -48 -65 -157 -108 -272 -108 -121 0 -220 -61 -266 -162
-33 -74 -33 -191 0 -265 28 -64 91 -124 154 -148 69 -26 189 -18 250 18 97 57
141 137 157 289 14 130 42 191 120 262 71 64 140 90 251 94 157 7 269 -38 349
-140 57 -72 75 -133 75 -258 0 -88 -4 -113 -23 -155 -47 -102 -115 -147 -317
-210 -160 -50 -214 -75 -265 -121 -57 -51 -79 -105 -91 -217 -12 -114 -48
-197 -116 -265 -142 -142 -405 -161 -531 -39 -52 51 -78 104 -137 283 -61 186
-77 217 -140 272 -47 41 -100 62 -158 62 -193 0 -366 140 -406 328 -6 29 -11
68 -11 86 0 54 -28 130 -65 179 -52 68 -119 97 -251 108 -222 17 -274 73 -378
406 -50 162 -106 240 -192 274 -16 6 -71 15 -123 20 -245 23 -384 188 -368
436 12 198 141 338 332 362 79 10 174 45 247 92 46 30 66 55 88 114 l10 25
-296 0 c-227 0 -295 -3 -298 -12 -49 -188 -173 -292 -366 -305 -175 -12 -322
68 -391 212 -16 33 -29 70 -29 83 l0 22 -296 0 -295 0 7 -22 c26 -85 94 -156
173 -183 25 -8 87 -19 138 -24 118 -12 185 -43 252 -116 75 -83 95 -144 96
-285 0 -110 -2 -118 -33 -185 -61 -129 -158 -195 -316 -215 -268 -34 -397
-200 -305 -394 29 -63 111 -146 174 -176 179 -86 343 21 385 250 44 241 85
307 237 377 77 36 211 44 299 18 169 -49 254 -158 274 -349 13 -124 38 -183
102 -241 52 -46 83 -58 232 -90 155 -34 296 -127 346 -229 97 -202 -75 -497
-330 -562 -79 -20 -145 -14 -217 21 -115 57 -213 225 -238 410 -14 104 -71
187 -159 233 -44 23 -63 27 -136 27 -76 0 -91 -3 -138 -30 -101 -55 -145 -135
-161 -288 -6 -65 -18 -115 -34 -150 -67 -146 -255 -237 -429 -208 -191 32
-306 148 -329 333 -29 237 -68 279 -339 365 -171 54 -227 80 -278 131 -68 68
-77 99 -77 257 0 125 2 144 22 180 50 92 126 140 318 200 214 67 278 107 321
200 44 93 27 230 -36 307 -67 81 -215 118 -334 84 -114 -33 -196 -147 -196
-271 0 -153 -95 -300 -238 -368 -62 -29 -75 -32 -167 -32 -88 0 -107 4 -161
28 -213 98 -289 381 -161 600 53 91 152 151 273 166 78 10 173 46 246 92 46
30 66 55 88 114 l10 25 -295 0 -294 0 -15 -53 c-44 -150 -178 -251 -351 -264
-122 -10 -227 25 -313 102 -53 48 -97 120 -107 178 l-7 37 -303 0 -303 0 -7
-37 c-31 -169 -221 -295 -419 -280 -175 13 -308 113 -352 264 l-15 53 -295 0
-294 0 15 -37z m1847 -226 c72 -35 149 -118 180 -195 19 -48 23 -75 23 -173 0
-113 -1 -116 -38 -192 -74 -149 -199 -217 -378 -204 -123 8 -215 59 -280 153
-106 154 -94 390 26 523 86 95 157 123 305 118 90 -3 113 -7 162 -30z m690
-706 c80 -31 157 -104 194 -183 27 -58 29 -72 29 -178 0 -106 -2 -120 -28
-172 -96 -196 -351 -272 -563 -168 -157 77 -237 266 -190 450 34 132 120 220
261 267 62 20 226 11 297 -16z m7568 -661 c91 -15 160 -51 219 -115 64 -71 92
-144 99 -256 7 -134 -31 -240 -115 -323 -69 -68 -130 -92 -271 -106 -178 -17
-240 -86 -317 -351 -38 -134 -77 -212 -129 -263 -57 -55 -113 -75 -243 -85
-54 -4 -114 -15 -134 -23 -58 -25 -104 -73 -134 -139 -25 -56 -27 -70 -23
-148 5 -96 25 -146 79 -200 52 -53 103 -72 209 -81 130 -12 201 -39 265 -104
156 -156 160 -425 9 -586 -66 -70 -129 -99 -250 -111 -207 -21 -257 -72 -344
-349 -64 -206 -101 -265 -192 -315 -48 -27 -64 -30 -165 -33 -243 -9 -316 55
-408 353 -61 197 -112 277 -200 316 -22 10 -88 22 -147 27 -87 8 -117 16 -159
38 -93 51 -128 111 -202 345 -77 243 -124 290 -315 313 -181 23 -272 80 -334
211 -79 171 -50 364 74 489 65 64 137 94 247 103 147 11 251 -31 315 -129 23
-34 56 -115 91 -223 58 -177 96 -249 150 -290 95 -73 236 -72 333 2 55 41 90
108 139 263 46 146 78 220 116 272 47 64 157 108 267 108 79 0 146 25 195 75
51 51 83 117 125 260 45 151 80 226 132 278 55 54 112 75 239 86 106 10 136
19 189 61 50 40 90 120 140 280 65 206 108 278 194 320 78 37 152 46 256 30z
m-10373 -721 c79 -29 171 -121 204 -204 20 -50 23 -78 23 -170 0 -145 -22
-204 -108 -291 -93 -92 -212 -128 -345 -104 -87 16 -147 45 -202 100 -153 152
-154 436 -2 588 54 54 120 90 190 102 69 13 173 3 240 -21z m6983 -5 c72 -33
113 -65 150 -119 138 -201 74 -506 -128 -609 -26 -13 -77 -30 -112 -36 -179
-32 -345 50 -423 209 -31 63 -32 71 -32 186 0 114 2 123 32 187 71 150 205
225 383 212 49 -3 94 -14 130 -30z m-1490 16 c151 -24 272 -121 311 -251 30
-99 24 -219 -15 -306 -109 -241 -467 -294 -662 -98 -75 75 -99 141 -99 276 0
99 2 109 33 172 53 107 161 185 284 206 74 12 75 12 148 1z m4291 -4213 c75
-36 135 -98 172 -177 27 -56 32 -79 35 -163 4 -80 1 -109 -18 -165 -36 -115
-129 -213 -228 -243 -118 -35 -265 -16 -359 46 -60 40 -92 79 -130 160 -26 55
-28 70 -28 180 0 109 2 125 26 176 28 59 82 126 131 160 62 44 126 60 238 57
91 -3 113 -7 161 -31z m-4906 -688 c77 -29 157 -104 197 -187 32 -64 33 -72
33 -187 0 -114 -2 -123 -32 -187 -63 -133 -166 -200 -335 -217 -54 -5 -117
-18 -142 -29 -92 -41 -166 -155 -166 -257 0 -208 -130 -362 -333 -395 -178
-28 -361 60 -434 209 -26 52 -28 64 -28 186 0 125 1 132 29 183 50 89 123 133
320 191 253 75 317 134 337 309 15 132 41 201 106 273 47 52 83 77 152 105 77
32 215 33 296 3z m2797 -2798 c79 -30 148 -98 190 -186 31 -67 33 -76 33 -185
0 -108 -2 -119 -32 -182 -40 -85 -100 -150 -172 -185 -52 -26 -65 -28 -176
-28 -111 0 -124 2 -176 28 -150 73 -239 260 -209 435 28 163 123 276 268 318
67 19 202 12 274 -15z m-2790 -11 c109 -40 178 -109 219 -219 30 -81 25 -243
-11 -316 -71 -145 -212 -222 -389 -213 -122 7 -189 35 -267 112 -83 82 -107
145 -107 276 0 117 24 186 89 259 49 54 138 105 214 121 66 14 189 4 252 -20z
m693 -690 c45 -17 77 -40 126 -89 79 -79 106 -142 120 -274 13 -131 57 -204
153 -254 17 -9 104 -40 193 -69 187 -61 259 -101 303 -170 60 -95 67 -267 15
-383 -36 -80 -119 -158 -201 -190 -172 -67 -386 -16 -484 114 -53 70 -70 117
-80 220 -11 109 -30 165 -74 219 -42 52 -109 85 -194 97 -192 28 -230 42 -304
115 -181 178 -143 513 73 646 85 53 243 61 354 18z"/>
<path d="M11709 9957 c-173 -49 -255 -201 -203 -376 55 -187 325 -254 486
-121 58 48 88 119 88 211 0 97 -19 152 -72 206 -72 74 -199 108 -299 80z"/>
<path d="M10071 13768 c-5 -18 -15 -52 -21 -75 -14 -56 -93 -136 -162 -167
-59 -26 -171 -56 -209 -56 -55 0 -131 -32 -176 -73 -115 -106 -134 -274 -45
-402 34 -50 111 -103 160 -110 63 -9 244 -65 300 -92 39 -18 62 -38 82 -70 30
-47 84 -203 100 -292 21 -113 105 -213 204 -241 28 -8 74 -11 115 -8 149 11
219 92 287 330 33 117 81 223 123 270 51 59 108 80 235 90 92 6 120 12 166 35
134 69 187 246 120 401 -41 96 -145 162 -255 162 -22 0 -67 7 -100 15 -146 38
-243 131 -285 273 l-13 42 -308 0 -307 0 -11 -32z m460 -228 c77 -26 124 -56
172 -109 67 -74 81 -119 82 -256 0 -116 -1 -123 -33 -187 -54 -111 -154 -179
-292 -201 -187 -29 -381 71 -439 228 -70 186 -13 380 141 482 94 63 255 81
369 43z"/>
<path d="M11505 13778 c26 -87 110 -167 203 -194 45 -13 64 -14 113 -5 132 26
207 85 249 196 l10 25 -291 0 -290 0 6 -22z"/>
<path d="M0 10379 c0 -239 2 -289 14 -289 60 0 164 98 190 178 27 88 29 153 6
215 -28 74 -98 148 -163 170 l-47 16 0 -290z"/>
<path d="M5385 10647 c-106 -52 -159 -142 -160 -272 0 -68 4 -89 28 -137 48
-97 141 -158 243 -158 165 0 320 -98 375 -236 20 -49 24 -77 24 -169 0 -102
-2 -114 -31 -175 -38 -80 -72 -121 -127 -153 -113 -67 -286 -76 -404 -23 -129
59 -223 210 -223 361 0 77 -26 142 -79 195 -64 63 -110 83 -204 88 -125 7
-212 -40 -275 -147 -24 -41 -27 -56 -27 -136 0 -78 4 -97 27 -140 14 -27 43
-67 64 -87 37 -38 124 -78 169 -78 40 0 236 -69 284 -100 82 -53 125 -140 145
-293 14 -108 28 -144 71 -190 49 -51 99 -76 270 -132 303 -99 364 -170 353
-406 -8 -184 -97 -298 -272 -351 -140 -42 -300 -9 -402 84 -82 75 -124 175
-124 293 0 66 -34 148 -80 189 -55 50 -116 78 -260 121 -272 81 -344 154 -357
362 -7 120 -29 178 -90 234 -93 85 -215 107 -324 57 -106 -49 -157 -116 -178
-235 -13 -71 -59 -211 -89 -269 -27 -52 -81 -100 -152 -133 -50 -23 -67 -26
-175 -26 -108 0 -125 2 -168 25 -92 47 -129 108 -201 328 -51 159 -65 189
-109 246 -70 88 -220 116 -331 62 -71 -35 -131 -103 -150 -170 -8 -28 -27 -96
-42 -150 -15 -55 -42 -130 -60 -167 -30 -62 -38 -71 -91 -98 -64 -32 -202 -75
-273 -86 -142 -22 -238 -131 -248 -280 -6 -97 21 -166 89 -230 66 -62 108 -79
199 -79 60 0 85 4 125 24 97 47 158 122 171 212 9 66 61 226 92 288 53 106
179 170 332 170 135 0 228 -47 285 -143 13 -23 49 -118 80 -212 60 -183 95
-248 153 -288 52 -36 81 -46 175 -56 158 -18 253 -74 306 -180 31 -61 75 -201
85 -269 9 -59 48 -133 88 -167 90 -76 223 -100 319 -58 100 44 179 150 179
239 0 154 75 304 182 367 137 80 335 75 461 -12 91 -62 139 -155 161 -307 16
-119 34 -161 88 -210 51 -45 118 -77 261 -120 206 -63 295 -125 331 -231 23
-68 21 -215 -4 -287 -50 -146 -173 -237 -344 -253 -173 -16 -350 86 -406 234
-11 31 -25 97 -30 148 -14 153 -84 251 -206 290 -107 34 -215 5 -288 -76 -46
-50 -72 -106 -121 -264 -83 -267 -151 -333 -351 -343 -171 -8 -266 36 -330
153 -19 33 -56 130 -84 215 -70 217 -118 283 -227 316 -140 42 -287 -21 -344
-148 -34 -75 -33 -202 1 -272 49 -102 130 -151 265 -162 197 -15 312 -101 365
-271 63 -206 -36 -435 -217 -503 -32 -12 -100 -25 -153 -30 -113 -9 -159 -29
-214 -91 -57 -63 -80 -121 -80 -204 1 -147 102 -271 236 -291 140 -20 322 -96
366 -152 59 -75 79 -128 92 -249 19 -175 100 -269 263 -303 78 -16 210 -61
274 -94 139 -70 193 -308 112 -491 -26 -59 -62 -100 -113 -129 -44 -26 -256
-96 -290 -96 -34 -1 -101 -35 -146 -76 -47 -42 -85 -110 -95 -170 -11 -63 -56
-205 -82 -261 -52 -108 -154 -169 -310 -184 -71 -6 -112 -16 -150 -35 -163
-79 -203 -324 -78 -472 45 -54 114 -83 224 -93 120 -11 214 -53 283 -127 69
-74 93 -143 92 -272 0 -138 -24 -201 -103 -281 -80 -80 -143 -103 -281 -103
-120 0 -186 20 -254 76 -59 48 -87 117 -161 390 -11 42 -28 71 -65 111 -57 63
-92 82 -199 108 -105 25 -216 64 -266 93 -159 94 -208 396 -87 537 55 64 113
95 272 145 285 91 338 139 360 334 13 112 47 196 109 262 70 77 189 128 297
128 76 0 142 27 194 79 67 67 93 129 93 221 0 92 -23 151 -84 210 -68 66 -91
75 -199 75 -109 0 -160 -18 -225 -82 -54 -52 -74 -107 -85 -224 -7 -82 -14
-113 -40 -165 -36 -73 -100 -135 -180 -173 -50 -23 -67 -26 -175 -26 -111 0
-125 2 -180 28 -140 65 -225 202 -225 362 0 57 -31 140 -70 187 -31 38 -137
98 -174 98 -26 0 -163 41 -235 69 -82 33 -108 56 -140 124 -25 54 -41 107 -93
302 -21 82 -101 164 -187 193 -48 17 -139 15 -194 -4 -56 -19 -131 -83 -157
-134 -10 -20 -29 -77 -41 -126 -67 -275 -149 -386 -304 -415 -133 -25 -255 19
-366 131 -82 83 -109 137 -116 232 -9 114 33 247 95 305 58 54 211 117 320
133 146 20 234 106 266 255 67 317 148 408 391 440 65 8 122 22 149 36 82 41
137 117 156 218 14 73 76 258 101 297 11 18 35 42 53 54 40 24 266 100 299
100 77 0 206 113 231 203 8 29 27 96 42 151 15 54 39 124 54 155 51 108 151
167 308 182 147 14 217 54 270 154 24 44 27 62 27 145 0 80 -4 102 -23 140
-57 109 -136 156 -263 154 -63 -1 -84 -5 -127 -29 -86 -46 -118 -101 -182
-305 -52 -165 -86 -235 -139 -283 -57 -52 -102 -67 -216 -76 -126 -10 -189
-36 -248 -101 -40 -45 -77 -126 -77 -169 0 -31 -70 -234 -96 -278 -45 -78
-192 -153 -298 -153 -69 0 -144 -28 -190 -70 -53 -49 -83 -110 -136 -280 -50
-161 -75 -213 -127 -262 -57 -55 -120 -79 -234 -88 -196 -15 -257 -78 -334
-341 -20 -68 -47 -146 -61 -175 -42 -89 -121 -153 -211 -172 l-38 -8 -3 -297
-2 -297 27 -6 c98 -21 154 -58 201 -130 17 -27 55 -122 85 -211 63 -185 97
-253 147 -294 65 -55 177 -73 261 -44 103 37 150 103 217 311 57 174 88 240
139 290 64 64 111 79 248 79 104 0 127 -3 172 -24 64 -28 127 -94 158 -166 13
-29 40 -106 59 -170 46 -150 65 -193 112 -244 54 -61 101 -81 209 -91 51 -5
116 -18 146 -29 246 -93 314 -456 123 -661 -66 -71 -134 -100 -255 -111 -122
-10 -186 -36 -239 -96 -48 -55 -70 -118 -70 -203 0 -95 23 -155 85 -217 61
-60 122 -83 225 -83 107 0 166 -23 230 -88 60 -62 81 -107 140 -302 38 -125
59 -167 108 -222 51 -57 101 -76 226 -87 207 -18 273 -85 355 -361 75 -250
153 -333 311 -333 158 1 243 93 315 343 39 138 86 230 141 279 67 58 123 74
252 69 92 -3 115 -7 164 -31 111 -54 187 -164 210 -302 22 -129 -28 -282 -118
-365 -67 -62 -134 -89 -247 -99 -148 -14 -231 -62 -285 -165 -22 -43 -27 -64
-27 -131 0 -70 4 -87 30 -134 43 -78 111 -119 303 -181 85 -28 177 -62 204
-77 62 -34 114 -93 136 -155 l17 -48 287 0 c159 0 288 3 288 6 0 17 -46 78
-86 113 -43 37 -116 71 -156 71 -31 0 -211 61 -268 91 -61 33 -90 68 -128 161
-34 84 -36 214 -3 299 50 130 118 179 323 234 57 15 122 34 146 42 193 67 255
318 116 472 -56 62 -122 90 -233 101 -119 11 -190 40 -255 103 -198 195 -145
551 98 663 34 16 86 27 151 34 203 21 253 76 345 380 39 129 67 183 117 234
56 57 110 77 229 86 202 15 262 77 344 355 77 263 146 329 358 344 163 12 233
54 285 170 32 70 30 189 -4 261 -49 104 -120 152 -236 158 -95 5 -156 -15
-210 -71 -54 -55 -83 -117 -127 -262 -48 -158 -86 -234 -142 -284 -54 -48
-111 -67 -220 -75 -116 -9 -169 -30 -230 -91 -55 -54 -70 -91 -93 -221 -24
-135 -102 -276 -175 -319 -113 -65 -285 -74 -384 -20 -68 37 -172 147 -205
216 -34 73 -41 124 -27 200 23 126 90 218 197 272 63 32 177 67 219 67 85 0
195 73 237 155 40 81 39 207 -4 289 -49 96 -110 133 -246 148 -119 13 -187 37
-254 90 -93 73 -142 182 -142 313 0 146 56 263 151 313 67 35 240 92 281 92
15 0 56 14 90 31 128 64 190 211 147 351 -31 105 -125 190 -226 204 -61 9
-224 61 -282 90 -61 31 -84 56 -119 129 -37 79 -50 165 -38 251 20 139 89 237
207 292 52 25 68 27 177 27 116 0 123 -1 187 -33 125 -61 192 -165 210 -324
15 -133 31 -174 94 -235 70 -67 129 -87 230 -81 63 4 83 10 131 41 72 44 118
108 133 185 17 88 69 252 97 304 20 36 38 53 82 76 62 33 241 92 281 92 73 0
182 87 222 177 28 63 28 164 -1 228 -47 106 -109 155 -227 180 -85 18 -215 60
-267 87 -54 27 -125 95 -150 143 -16 31 -22 63 -25 141 -4 98 -3 104 28 170
39 82 141 188 216 225 43 21 63 24 159 24 100 0 116 -3 173 -29 39 -18 77 -45
98 -70 58 -67 105 -183 124 -303 13 -83 42 -145 90 -193 107 -107 288 -114
398 -15 74 67 97 121 97 230 0 102 -16 142 -81 209 -54 55 -109 77 -226 87
-167 14 -259 72 -325 206 -33 67 -38 85 -41 168 -5 108 13 183 60 257 66 104
154 153 300 167 122 12 185 38 243 103 46 51 48 56 100 253 39 148 75 217 130
249 47 28 240 96 272 96 48 0 127 33 167 70 162 149 132 402 -58 495 -87 42
-213 35 -291 -18 -84 -57 -118 -109 -134 -203 -13 -79 -66 -239 -97 -292 -50
-85 -150 -138 -287 -153 -144 -16 -216 -58 -268 -161 -11 -22 -42 -108 -69
-191 -59 -182 -97 -250 -163 -294 -64 -43 -104 -53 -208 -53 -100 0 -167 17
-232 61 -174 115 -220 393 -96 578 67 100 154 146 303 160 103 10 149 26 206
71 41 32 100 136 100 175 0 57 84 290 118 328 36 41 211 108 328 127 82 14
142 47 186 106 124 162 75 383 -102 463 -62 28 -178 28 -239 1 -117 -53 -168
-130 -181 -274 -12 -122 -39 -192 -101 -261 -85 -92 -163 -126 -294 -126 -130
-1 -260 53 -305 126 -29 47 -67 154 -96 269 -31 120 -50 159 -101 207 -60 57
-97 72 -193 76 -74 4 -91 1 -135 -20z m-1132 -1987 c169 -52 279 -250 248
-444 -36 -221 -190 -346 -411 -334 -153 9 -259 79 -323 216 -30 63 -32 74 -32
182 0 108 2 119 31 180 71 150 179 218 350 219 46 1 96 -6 137 -19z m2 -2796
c152 -47 248 -194 248 -379 0 -143 -53 -258 -151 -330 -71 -52 -132 -70 -237
-69 -126 1 -191 27 -271 108 -87 88 -108 146 -108 291 0 136 21 198 95 280
103 112 263 150 424 99z m1 -2796 c210 -69 312 -341 210 -563 -33 -73 -106
-149 -175 -182 -51 -26 -66 -28 -171 -28 -110 0 -118 2 -182 33 -79 39 -129
92 -172 181 -29 62 -31 73 -31 182 0 113 1 116 38 191 51 105 133 173 234 197
72 17 179 12 249 -11z"/>
<path d="M1255 7871 c-116 -29 -170 -104 -241 -336 -81 -270 -156 -345 -349
-353 -242 -11 -322 56 -415 347 -27 86 -59 174 -71 196 -37 70 -93 120 -156
139 l-23 7 0 -295 0 -295 42 -12 c184 -49 286 -201 276 -413 -3 -76 -9 -102
-34 -156 -17 -36 -50 -84 -73 -108 -44 -45 -149 -102 -188 -102 l-23 0 0 -295
c0 -163 4 -295 9 -295 25 0 88 36 128 73 63 58 84 110 93 231 15 212 86 285
350 361 187 54 287 118 324 207 9 20 20 74 25 120 29 251 153 367 421 393 119
12 191 62 239 165 21 44 25 70 25 135 0 69 -4 88 -29 140 -59 117 -197 178
-330 146z"/>
<path d="M13743 7844 c-172 -85 -208 -325 -71 -470 44 -46 110 -85 124 -72 2
3 3 132 2 287 l-3 282 -52 -27z"/>
<path d="M10304 7170 c-115 -36 -196 -149 -196 -277 -1 -185 112 -306 287
-306 167 0 285 120 285 292 0 119 -59 225 -153 272 -46 24 -173 34 -223 19z"/>
<path d="M2600 6449 c-120 -54 -158 -114 -171 -266 -5 -60 -16 -129 -24 -154
-35 -106 -128 -168 -350 -235 -139 -42 -202 -71 -248 -117 -100 -101 -102
-278 -4 -384 70 -76 111 -94 240 -104 218 -18 285 -84 367 -364 72 -249 156
-335 324 -335 107 0 200 60 248 159 33 68 36 179 8 255 -40 105 -138 176 -245
176 -66 0 -155 20 -208 47 -227 115 -275 465 -90 651 64 63 136 93 263 107
123 15 168 34 228 98 50 55 71 102 79 177 13 126 -60 247 -173 290 -74 27
-183 27 -244 -1z"/>
<path d="M11000 6461 c-133 -41 -205 -140 -203 -281 1 -87 17 -133 70 -191 93
-102 256 -124 387 -51 119 66 167 230 109 373 -20 51 -101 123 -160 143 -48
17 -159 20 -203 7z"/>
<path d="M5457 5069 c-68 -11 -131 -44 -175 -94 -47 -53 -65 -108 -64 -197 2
-163 106 -267 277 -276 65 -3 91 0 136 17 224 85 241 417 27 519 -69 33 -127
42 -201 31z"/>
<path d="M10965 5057 c-106 -52 -160 -144 -159 -272 0 -124 51 -215 149 -268
33 -18 57 -22 135 -22 107 0 148 15 207 77 56 58 78 121 77 218 0 97 -21 154
-79 213 -52 53 -98 71 -195 75 -73 2 -92 -1 -135 -21z"/>
<path d="M13745 5053 c-70 -37 -136 -122 -153 -199 -20 -92 21 -225 90 -291
27 -27 93 -63 113 -63 3 0 5 128 5 285 0 309 2 298 -55 268z"/>
<path d="M0 3391 c0 -218 3 -291 12 -291 27 0 99 44 133 82 104 114 111 272
19 392 -33 43 -93 86 -141 101 l-23 6 0 -290z"/>
<path d="M1237 3666 c-131 -38 -192 -121 -207 -281 -12 -120 -40 -192 -98
-256 -55 -58 -135 -95 -284 -129 -136 -32 -176 -48 -218 -90 -94 -94 -122
-240 -67 -352 30 -62 74 -106 140 -140 64 -34 184 -31 253 4 110 57 141 102
173 245 23 106 72 242 101 283 12 17 47 43 78 59 56 28 216 81 244 81 77 0
197 82 241 164 29 55 32 212 4 267 -59 119 -222 184 -360 145z"/>
<path d="M11717 2980 c-142 -36 -224 -153 -215 -307 12 -181 141 -296 315
-280 158 15 256 130 257 299 0 127 -63 229 -169 274 -46 19 -140 26 -188 14z"/>
<path d="M0 1991 c0 -160 2 -291 4 -291 25 0 99 39 128 67 85 83 120 256 70
350 -43 81 -102 134 -179 157 l-23 7 0 -290z"/>
<path d="M1225 2263 c-65 -24 -110 -56 -145 -104 -80 -110 -56 -295 48 -378
49 -38 97 -59 248 -106 276 -86 338 -149 353 -358 6 -84 13 -116 35 -161 45
-91 119 -141 235 -158 177 -26 233 -48 309 -121 65 -64 100 -146 116 -275 15
-123 36 -172 92 -222 103 -90 263 -101 383 -26 132 84 160 299 55 416 -53 59
-85 75 -270 136 -181 59 -231 83 -281 136 -51 52 -73 116 -82 231 -10 119 -25
160 -80 220 -52 57 -121 86 -225 97 -232 24 -369 161 -391 390 -10 106 -20
141 -60 193 -69 91 -223 131 -340 90z"/>
<path d="M5404 2262 c-116 -41 -185 -135 -186 -254 0 -86 18 -141 65 -194 50
-57 117 -91 287 -144 74 -23 157 -54 184 -68 102 -55 156 -153 156 -282 0
-165 69 -263 216 -306 140 -40 301 29 357 155 30 68 27 176 -7 246 -45 90
-117 135 -306 190 -274 79 -345 150 -360 363 -9 123 -23 163 -74 220 -72 79
-223 113 -332 74z"/>
<path d="M532 1571 c-73 -25 -122 -67 -157 -136 -27 -52 -30 -68 -29 -144 0
-105 24 -161 94 -224 55 -50 102 -66 216 -77 144 -13 271 -94 325 -209 53
-112 49 -266 -11 -387 -57 -117 -163 -182 -312 -192 -135 -8 -285 56 -335 144
-27 46 -76 191 -97 287 -20 88 -45 135 -95 180 -36 33 -99 67 -122 67 -5 0 -9
-132 -9 -295 l0 -295 45 -11 c59 -15 152 -75 194 -125 17 -21 44 -65 59 -96
l27 -58 306 0 305 0 23 55 c99 239 441 308 647 131 40 -34 104 -139 104 -170
0 -14 30 -16 295 -16 162 0 295 3 295 6 0 17 -44 74 -73 96 -52 40 -104 63
-247 108 -144 45 -214 76 -242 107 -35 38 -104 230 -123 338 -24 140 -150 235
-310 235 -130 0 -224 52 -282 155 -18 33 -56 130 -83 216 -70 216 -118 282
-227 315 -62 19 -117 17 -181 -5z"/>
<path d="M7502 1565 c-86 -27 -151 -90 -180 -174 -21 -60 -15 -169 12 -226 49
-105 140 -158 271 -159 68 -1 88 3 137 27 112 55 165 153 156 286 -6 82 -33
136 -94 190 -76 66 -197 89 -302 56z"/>
<path d="M5427 876 c-143 -59 -199 -129 -213 -267 -8 -83 8 -140 53 -190 53
-59 105 -85 270 -136 81 -25 173 -58 204 -74 61 -31 114 -92 144 -167 l17 -42
294 0 c162 0 294 2 294 5 0 18 -34 66 -69 98 -58 52 -111 76 -194 87 -141 18
-228 54 -294 120 -67 68 -101 143 -119 262 -9 56 -23 123 -31 147 -32 89 -160
181 -252 181 -26 0 -72 -11 -104 -24z"/>
<path d="M6804 872 c-55 -19 -89 -43 -127 -88 -50 -61 -62 -94 -62 -184 0
-100 23 -159 90 -226 50 -50 101 -69 223 -82 114 -13 183 -43 255 -111 47 -45
107 -140 107 -170 0 -8 97 -11 308 -11 l309 0 37 74 c41 83 90 132 171 171
211 99 473 10 556 -190 l23 -55 307 0 307 0 30 64 c65 139 168 209 333 227
129 15 175 33 230 89 58 59 79 118 79 221 0 68 -4 85 -33 141 -53 103 -150
155 -272 145 -74 -5 -130 -33 -179 -87 -45 -50 -62 -88 -115 -258 -63 -199
-112 -276 -210 -324 -40 -20 -61 -23 -171 -23 -143 0 -189 14 -253 79 -50 50
-78 109 -137 288 -54 166 -88 230 -143 273 -106 80 -272 71 -362 -20 -58 -57
-80 -104 -99 -206 -9 -46 -28 -119 -42 -161 -43 -131 -133 -209 -280 -244
-148 -34 -297 21 -389 146 -37 51 -95 211 -95 264 0 18 -7 57 -16 87 -20 68
-106 158 -170 177 -58 17 -150 14 -210 -6z"/>
<path d="M3340 181 c-74 -23 -150 -83 -181 -143 l-19 -38 280 0 280 0 -19 38
c-44 86 -156 152 -256 151 -33 0 -71 -4 -85 -8z"/>
</g>
</svg>
